<svg height="43" viewBox="0 0 110 43" width="110" xmlns="http://www.w3.org/2000/svg" xmlns:xlink="http://www.w3.org/1999/xlink"><mask id="a" fill="#fff"><path d="m.033.083h9.695v14.958h-9.695z" fill="#fff" fill-rule="evenodd"/></mask><g fill="none" fill-rule="evenodd" transform="translate(.393 .393)"><path d="m46.2927672 7.44327347-1.7597883.00359184-.001573-5.63761225h-1.8791149l.4804529-1.65853061 4.8562155-.00202041v1.65920408h-1.6977653zm2.0633859-.00044898h1.5714722v-3.26385714c-.0013483-.61151021.3101147-.94420408.8042756-.94420408.4029243 0 .5885436.24895918.5885436.76865306l.0026967 3.43783673h1.5842813l-.001573-3.927c0-1.05555102-.6561846-1.67738775-1.6238322-1.67738775-.5941617 0-1.096862.23997959-1.5013593.68761224l-.0013484-2.52438775h-1.4247295zm7.8661252-4.22130612c.2204511 0 .4195537.05904081.6065213.16387755l-1.9177669 1.23312245.0013484-.08351021c0-.77381632.5593299-1.31348979 1.3098972-1.31348979zm-.1035962 4.27653061c.8361859-.00134694 1.6474278-.30665306 2.4492314-.89706122l-.8541635-1.2057347c-.5818021.39510204-1.0842777.60387755-1.5220337.60387755-.3391036 0-.6355103-.10573469-.9040516-.33269388l3.4795761-2.24108163c-.6784319-1.05869388-1.5036065-1.57165306-2.5768728-1.57165306-1.7514736.00089796-2.9049652 1.19226531-2.9049652 2.82183674.0013483 1.64820408 1.2004583 2.8225102 2.8332793 2.8225102zm-2.4179953 1.36736735v32.31844897h-9.1971463v-5.0739184c1.11057-1.9887551 1.6896754-4.3214285 1.6896754-6.9187755 0-2.8548367-.6480947-5.0377755-1.6896754-6.742102v-13.58365307zm44.7630255 11.95273467c-2.8078858-.8654081-4.5294715-1.4760204-4.5294715-3.0591224 0-1.320449 1.7707996-2.0518368 2.9910333-2.0518368 2.2528255 0 3.5323859.7565306 5.2422859 2.2446735l.300676.2586123 4.652394-5.8986939-.286744-.2339184c-2.819122-2.3120204-6.511958-3.6342653-10.1288383-3.6342653-5.6357717 0-11.6218831 3.4683673-11.6218831 9.8984286 0 6.9324694 5.3521741 8.6442041 9.2623152 9.8919183 2.8166499.903347 4.5431795 1.5339388 4.5431795 3.0901021 0 1.7876122-2.4703553 2.3681428-3.6665438 2.3681428-2.2820393 0-4.1928398-.8106326-5.5184675-2.3432245l-.3000022-.3459387-3.0669889 3.9063469-4.8371142-26.05181632h-7.5960109l-3.0433931 13.15420412-3.3263166-16.66477554-7.4301669-.00179592-6.021842 35.83867346h8.7564688l1.7654062-11.4698571 2.0564196 11.4698571h8.1281497l2.1739485-11.5612245 1.4759659 11.5612245h9.1391683l-.3880927-1.6928775.0750567.033c2.3952985 1.2528775 5.2357688 1.9256734 8.2706226 1.9256734 7.4137622 0 12.2016622-4.1871836 12.2016622-10.6650612 0-7.105102-5.360039-8.7575714-9.2728767-9.966449zm-64.8132852-3.3336734c-3.3854182-1.045898-6.3099341-1.948347-6.3099341-4.6815103 0-2.352653 2.7665372-3.44771424 4.6413825-3.44771424 2.8941785 0 4.6501465.96059184 6.5330817 2.50889794l.313036.2545714 4.7634058-6.03720403-.3229237-.24379592c-3.2955299-2.46736735-7.5117406-3.8852449-11.5717705-3.8852449-6.663195 0-13.7484156 4.05922449-13.7484156 11.58434695 0 8.0879184 5.8694813 9.9642041 11.0456991 11.6218367 3.3910362 1.0831633 6.319597 2.0183878 6.319597 4.7100204 0 2.7984898-3.3618224 3.7415715-5.483411 3.7415715-5.0110481 0-8.58658-3.597449-9.7011949-4.6570409l-4.7078998 6.7793674c4.1362102 3.409551 7.5712916 5.0433877 10.9003048 5.6726326 1.2640543.2159592 2.5696818.330898 3.9063209.330898 4.0541871 0 7.6847755-1.1107755 10.2229964-3.124898 2.7847396-2.2049387 4.2566605-5.4640816 4.2566605-9.4200408 0-8.2998367-5.8724027-10.1103469-11.0569351-11.7066938zm74.1212189-8.22485719.457082.72195918.030337.00134694.453711-.72061224v1.11010201l.353037-.0006734v-1.64416331l-.384497-.00044898-.432139.69479592-.433486-.69569388h-.396183l-.000898 1.64551025h.35416zm-1.566079 1.11212249h.373711l.001348-1.31281637.491689-.00179592.001348-.33067347h-1.358437v.33067347l.488993.00044898z" fill="#1500b3"/><path d="m16.632 15.349 2.777 8.201-4.946-.617-.54-4.948z" fill="#478012"/><path d="m19.409 23.55-.427.657-.02-.013-5.658 1.844 1.159-3.105z" fill="#76ff83"/><path d="m18.982 24.207-2.063 3.182-.026-.018-5.452 3.656 1.863-4.989 5.658-1.844z" fill="#c7ffbd"/><path d="m9.728.1-9.695 14.941 4.217-11.303 5.452-3.655z" fill="#5ee903" mask="url(#a)" transform="translate(7.191 27.289)"/><path d="m15.6560252 12.4560408.9761869 2.892551-2.7090087 2.6368572-.416857-3.8459592c.7429269-.5086939 1.4640557-1.0692449 2.1496788-1.683449" fill="#5eea03"/><path d="m13.923 17.985.54 4.948-4.911-.612.011-.087z" fill="#35ba2a"/><path d="m14.4628479 22.9332939-1.158885 3.1044694-.0107866.0020204s-5.87577348 2.2069592-7.56185328 2.7138571l-.76832026-7.0052041 4.58879777.5722245z" fill="#5ee903"/><path d="m12.2117077 2.27596735 3.444295 10.18016325c-.685623.6139796-1.4067519 1.1747551-2.1496787 1.6832245z" fill="#76ff83"/><path d="m13.3040303 26.0377857-1.8624855 4.9892857-.0155058.011898-5.00610418 3.9786326-.68854439-6.2639387c1.68607981-.506898 7.56185337-2.7138572 7.56185337-2.7138572z" fill="#258402"/><path d="m13.5062566 14.1394.416857 3.8459592-4.36048153 4.2489184-.0107866.0864285-4.58879776-.5722245-.00561802-.0392857 1.51866284-4.0688775c2.14698207-.759 4.68407937-1.8807755 7.03016407-3.5009184" fill="#f6f7f5"/><path d="m11.426 31.039.015-.012-4.217 11.303-.804-7.312z" fill="#134401"/><path d="m12.2117077 2.27596735 1.2946163 11.86338775c-2.3460847 1.6201429-4.8834067 2.7421429-7.03016405 3.5009184z" fill="#c7ffbd"/><path d="m6.42 35.018.804 7.311-2.053-6.022 1.167-1.226z" fill="#5ee903"/><path d="m12.2117077 2.27596735-5.73554775 15.36430615c-2.92069562 1.0353469-5.11958818 1.3938571-5.11958818 1.3938571z" fill="#1ea805"/><path d="m5.73134549 28.7535519.68854438 6.2639828-.08179835.0637551-1.16697487 1.2254898-2.30743268-6.7715102c.1809002-.0406327 1.32427939-.3165306 2.85687492-.7794286.00337081.000449.00741579-.0026939.0107866-.0022889" fill="#35ba2a"/><path d="m4.96302524 21.7483694.76832025 7.0052041c-.00337081-.000449-.00741579.0026938-.0107866.0022449-1.53259553.4628979-2.67597472.7387959-2.85687492.779653l-2.86361655-8.4060204z" fill="#4e801a"/><path d="m6.47604759 17.6403633-1.51866285 4.0688775.00561802.0390612-4.96295782-.6189183 1.35641447-2.0951633s2.19889256-.3587347 5.11958818-1.3938571" fill="#134401"/></g></svg>